<?xml version="1.0" encoding="UTF-8"?>
<svg width="405px" height="178px" viewBox="0 0 405 178" version="1.1" xmlns="http://www.w3.org/2000/svg" xmlns:xlink="http://www.w3.org/1999/xlink">
    <title>Group</title>
    <defs>
        <polygon id="path-1" points="0.5566 0.1682 402.4186 0.1682 402.4186 24 0.5566 24"></polygon>
    </defs>
    <g id="Page-1" stroke="none" stroke-width="1" fill="none" fill-rule="evenodd">
        <g id="Group" transform="translate(0.000100, 0.000300)">
            <g id="Group-3" transform="translate(1.999900, 152.716700)">
                <mask id="mask-2" fill="white">
                    <use xlink:href="#path-1"></use>
                </mask>
                <g id="Clip-2"></g>
                <path d="M392.9736,23.6202 L392.9736,15.6942 L394.5576,15.6942 L401.2176,23.6202 L402.4186,23.6202 L395.3516,15.1912 L402.1016,7.1372 L400.9006,7.1372 L394.4956,14.7472 L392.9736,14.7472 L392.9736,1.4332 L392.0236,1.4332 L392.0236,23.6202 L392.9736,23.6202 Z M383.1506,23.6202 L383.1506,10.6862 C383.9386,8.7822 385.4896,7.7082 387.3956,7.7082 C387.6136,7.7082 388.0336,7.7412 388.0336,7.7412 L388.1896,7.5812 L388.2506,6.8192 C388.2506,6.8192 387.9346,6.7632 387.4226,6.7632 C385.3326,6.7632 383.9716,7.7662 383.1746,9.1322 L383.1136,9.1322 L382.8316,7.1372 L382.2006,7.1372 L382.2006,23.6202 L383.1506,23.6202 Z M376.3336,16.0442 C376.3336,20.1362 374.8756,23.0532 371.1046,23.0532 C367.3276,23.0532 365.8706,20.1362 365.8706,16.0442 L365.8706,14.7142 C365.8706,10.6902 367.3276,7.7082 371.1046,7.7082 C374.8756,7.7082 376.3336,10.6902 376.3336,14.7142 L376.3336,16.0442 Z M371.0046,6.7632 C367.0776,6.7632 364.9256,9.6702 364.9256,14.7142 L364.9256,16.0442 C364.9256,21.0862 367.0776,24.0002 371.0046,24.0002 L371.1986,24.0002 C375.1316,24.0002 377.2846,21.0862 377.2846,16.0442 L377.2846,14.7142 C377.2846,9.6702 375.1316,6.7632 371.1986,6.7632 L371.0046,6.7632 Z M358.1046,23.6202 L362.2226,7.1372 L361.2436,7.1372 L358.2326,19.1212 L357.4096,22.6742 L357.2826,22.6742 L356.3936,19.1212 L353.0036,7.1372 L352.0536,7.1372 L348.6636,19.1212 L347.7756,22.6742 L347.6436,22.6742 L346.8256,19.1212 L343.8166,7.1372 L342.8286,7.1372 L346.9516,23.6202 L348.3456,23.6202 L351.9866,10.6902 L352.4306,8.5592 L352.6206,8.5592 L353.0656,10.6902 L356.7126,23.6202 L358.1046,23.6202 Z M332.8456,8.0872 L335.3786,8.0872 L335.3786,19.9752 C335.3786,22.8302 336.7076,24.0002 338.9296,24.0002 C339.8796,24.0002 340.7686,23.7492 340.7686,23.7492 L340.7686,23.0232 L340.5506,22.8602 C340.5506,22.8602 339.7236,23.0532 338.9296,23.0532 C337.5016,23.0532 336.3296,22.5142 336.3296,19.9752 L336.3296,8.0872 L340.7686,8.0872 L340.7686,7.1372 L336.3296,7.1372 L336.3296,3.3342 L335.3786,3.3342 L335.3786,7.1372 L332.8456,7.1372 L332.8456,8.0872 Z M318.8956,14.7182 C318.8956,9.7032 321.3346,7.7082 323.9676,7.7082 L324.2886,7.7082 C326.3456,7.7082 328.7236,8.7242 328.7236,13.1632 L328.7236,14.9032 L318.8956,14.9032 L318.8956,14.7182 Z M329.5456,15.8532 C329.5456,15.8532 329.6736,14.7182 329.6736,13.6692 L329.6736,13.1632 C329.6736,8.7532 327.4606,6.7632 324.2886,6.7632 L323.9676,6.7632 C320.4176,6.7632 317.9486,9.7032 317.9486,14.7472 L317.9486,15.8532 C317.9486,21.4662 320.4796,24.0002 324.6046,24.0002 C327.3286,24.0002 328.9166,22.9582 329.0426,22.8602 L328.9456,22.1982 L328.6936,22.0692 C328.2456,22.1982 326.9156,23.0532 324.6046,23.0532 C321.5886,23.0532 318.8956,21.4352 318.8956,15.8532 L329.5456,15.8532 Z M302.7276,23.6202 L302.7276,10.1142 C304.4716,8.6262 306.4706,7.7082 308.5976,7.7082 C310.7826,7.7082 312.2446,8.8812 312.2446,12.0482 L312.2446,23.6202 L313.1886,23.6202 L313.1886,11.8912 C313.1886,8.5592 311.5116,6.7632 308.5976,6.7632 C305.9646,6.7632 304.0276,8.0202 302.6946,9.1322 L302.4106,7.1372 L301.7776,7.1372 L301.7776,23.6202 L302.7276,23.6202 Z M278.1596,23.6202 L278.1596,10.1142 C279.9096,8.6262 281.9046,7.7082 284.0296,7.7082 C286.2136,7.7082 287.6786,8.8812 287.6786,12.0482 L287.6786,23.6202 L288.6196,23.6202 L288.6196,11.8912 C288.6196,8.5592 286.9436,6.7632 284.0296,6.7632 C281.3966,6.7632 279.4646,8.0202 278.1316,9.1322 L277.8436,7.1372 L277.2176,7.1372 L277.2176,23.6202 L278.1596,23.6202 Z M264.0906,23.0532 C261.8116,23.0532 260.1246,21.4352 260.1246,19.1852 L260.1246,19.0252 C260.1246,17.1202 261.0136,15.3182 264.5676,14.9032 L269.9566,14.2692 L269.9566,19.1212 C268.7506,20.9912 267.0396,23.0532 264.0906,23.0532 L264.0906,23.0532 Z M269.9566,13.3152 L264.5676,13.9572 C260.8246,14.3972 259.1786,16.1752 259.1786,19.0252 L259.1786,19.1852 C259.1786,21.7852 261.0456,24.0002 264.0906,24.0002 C266.9116,24.0002 268.6856,22.4192 269.8946,20.6102 L269.9566,20.6102 C270.0226,22.7992 270.9026,24.0002 272.8076,24.0002 C272.9976,24.0002 273.0906,23.9702 273.0906,23.9702 L273.2516,23.3662 L273.1546,23.2102 L272.7096,23.1482 C271.5356,22.9922 270.9026,22.3542 270.9026,20.2982 L270.9026,13.0982 C270.9026,8.8142 269.4796,6.7632 265.0406,6.7632 C262.5016,6.7632 260.5056,7.4532 260.5056,7.4532 C260.5056,7.4532 260.3796,8.1192 260.3796,8.2142 L260.5696,8.4072 C260.5696,8.4072 262.7896,7.7082 265.0406,7.7082 C269.0386,7.7082 269.9566,9.5802 269.9566,13.1592 L269.9566,13.3152 Z M236.3506,23.6202 L236.3506,10.1142 C238.0656,8.4692 239.7776,7.7082 241.5866,7.7082 C243.1706,7.7082 244.5986,8.5592 244.5986,11.4152 L244.5986,23.6202 L245.5456,23.6202 L245.5456,11.2592 C245.5456,10.8762 245.5116,10.5262 245.4506,10.2142 C247.2286,8.4982 248.9356,7.7082 250.7776,7.7082 C252.3656,7.7082 253.7896,8.5592 253.7896,11.4152 L253.7896,23.6202 L254.7406,23.6202 L254.7406,11.2592 C254.7406,8.2432 253.1566,6.7632 250.7776,6.7632 C248.4296,6.7632 246.6216,7.9892 245.2606,9.3252 C244.7216,7.6132 243.3606,6.7632 241.5866,6.7632 C239.3666,6.7632 237.6506,7.8642 236.3216,9.0742 L236.0336,7.1372 L235.4046,7.1372 L235.4046,23.6202 L236.3506,23.6202 Z M228.1466,7.1372 L228.1466,19.1572 C226.9426,21.1812 225.0696,23.0532 222.2806,23.0532 C219.9656,23.0532 218.6356,21.7202 218.6356,18.7082 L218.6356,7.1372 L217.6826,7.1372 L217.6826,18.8642 C217.6826,22.0362 219.2376,24.0002 222.2806,24.0002 C224.9746,24.0002 226.9086,22.4192 228.0816,20.6102 L228.1466,20.6102 C228.2076,22.7992 229.0936,24.0002 230.9946,24.0002 C231.1876,24.0002 231.2826,23.9702 231.2826,23.9702 L231.4386,23.3662 L231.3436,23.2102 L230.8996,23.1482 C229.7276,22.9922 229.0936,22.3542 229.0936,20.2982 L229.0936,7.1372 L228.1466,7.1372 Z M201.6746,23.6202 L201.6746,10.1142 C203.4226,8.6262 205.4176,7.7082 207.5406,7.7082 C209.7296,7.7082 211.1856,8.8812 211.1856,12.0482 L211.1856,23.6202 L212.1326,23.6202 L212.1326,11.8912 C212.1326,8.5592 210.4616,6.7632 207.5406,6.7632 C204.9416,6.7632 203.0736,7.9632 201.7326,9.0742 L201.6746,9.0742 L201.6746,1.4332 L200.7286,1.4332 L200.7286,23.6202 L201.6746,23.6202 Z M177.4276,14.7182 C177.4276,9.7032 179.8686,7.7082 182.5006,7.7082 L182.8136,7.7082 C184.8766,7.7082 187.2546,8.7242 187.2546,13.1632 L187.2546,14.9032 L177.4276,14.9032 L177.4276,14.7182 Z M188.0786,15.8532 C188.0786,15.8532 188.2026,14.7182 188.2026,13.6692 L188.2026,13.1632 C188.2026,8.7532 185.9886,6.7632 182.8136,6.7632 L182.5006,6.7632 C178.9496,6.7632 176.4776,9.7032 176.4776,14.7472 L176.4776,15.8532 C176.4776,21.4662 179.0106,24.0002 183.1296,24.0002 C185.8576,24.0002 187.4446,22.9582 187.5736,22.8602 L187.4786,22.1982 L187.2236,22.0692 C186.7796,22.1982 185.4466,23.0532 183.1296,23.0532 C180.1216,23.0532 177.4276,21.4352 177.4276,15.8532 L188.0786,15.8532 Z M161.2606,23.6202 L161.2606,10.1142 C163.0046,8.6262 165.0036,7.7082 167.1216,7.7082 C169.3156,7.7082 170.7716,8.8812 170.7716,12.0482 L170.7716,23.6202 L171.7216,23.6202 L171.7216,11.8912 C171.7216,8.5592 170.0426,6.7632 167.1216,6.7632 C164.5226,6.7632 162.6556,7.9632 161.3226,9.0742 L161.2606,9.0742 L161.2606,1.4332 L160.3146,1.4332 L160.3146,23.6202 L161.2606,23.6202 Z M148.4246,8.0872 L150.9626,8.0872 L150.9626,19.9752 C150.9626,22.8302 152.2906,24.0002 154.5096,24.0002 C155.4626,24.0002 156.3446,23.7492 156.3446,23.7492 L156.3446,23.0232 L156.1246,22.8602 C156.1246,22.8602 155.3036,23.0532 154.5096,23.0532 C153.0866,23.0532 151.9046,22.5142 151.9046,19.9752 L151.9046,8.0872 L156.3446,8.0872 L156.3446,7.1372 L151.9046,7.1372 L151.9046,3.3342 L150.9626,3.3342 L150.9626,7.1372 L148.4246,7.1372 L148.4246,8.0872 Z M130.0396,8.0872 L132.5776,8.0872 L132.5776,23.6202 L133.5246,23.6202 L133.5246,8.0872 L139.0696,8.0872 L139.0696,7.1372 L133.5246,7.1372 L133.5246,5.2362 C133.5246,2.2242 134.0016,1.1142 136.6966,1.1142 C137.2356,1.1142 138.7946,1.3032 138.7946,1.3032 L139.0126,1.1142 L139.0696,0.4192 C139.0696,0.4192 137.6506,0.1682 136.6966,0.1682 C133.3646,0.1682 132.5776,1.9032 132.5776,5.2362 L132.5776,7.1372 L130.0396,7.1372 L130.0396,8.0872 Z M126.7166,16.0442 C126.7166,20.1362 125.2546,23.0532 121.4796,23.0532 C117.7056,23.0532 116.2466,20.1362 116.2466,16.0442 L116.2466,14.7142 C116.2466,10.6902 117.7056,7.7082 121.4796,7.7082 C125.2546,7.7082 126.7166,10.6902 126.7166,14.7142 L126.7166,16.0442 Z M121.3836,6.7632 C117.4526,6.7632 115.2996,9.6702 115.2996,14.7142 L115.2996,16.0442 C115.2996,21.0862 117.4526,24.0002 121.3836,24.0002 L121.5746,24.0002 C125.5066,24.0002 127.6586,21.0862 127.6586,16.0442 L127.6586,14.7142 C127.6586,9.6702 125.5066,6.7632 121.5746,6.7632 L121.3836,6.7632 Z M99.6056,23.6202 L99.6056,10.6862 C100.3956,8.7822 101.9546,7.7082 103.8556,7.7082 C104.0776,7.7082 104.4886,7.7412 104.4886,7.7412 L104.6496,7.5812 L104.7106,6.8192 C104.7106,6.8192 104.3946,6.7632 103.8886,6.7632 C101.7936,6.7632 100.4326,7.7662 99.6386,9.1322 L99.5726,9.1322 L99.2886,7.1372 L98.6606,7.1372 L98.6606,23.6202 L99.6056,23.6202 Z M82.9656,14.7182 C82.9656,9.7032 85.4056,7.7082 88.0406,7.7082 L88.3536,7.7082 C90.4186,7.7082 92.7976,8.7242 92.7976,13.1632 L92.7976,14.9032 L82.9656,14.9032 L82.9656,14.7182 Z M93.6166,15.8532 C93.6166,15.8532 93.7446,14.7182 93.7446,13.6692 L93.7446,13.1632 C93.7446,8.7532 91.5296,6.7632 88.3536,6.7632 L88.0406,6.7632 C84.4916,6.7632 82.0186,9.7032 82.0186,14.7472 L82.0186,15.8532 C82.0186,21.4662 84.5526,24.0002 88.6716,24.0002 C91.4036,24.0002 92.9876,22.9582 93.1106,22.8602 L93.0156,22.1982 L92.7646,22.0692 C92.3196,22.1982 90.9866,23.0532 88.6716,23.0532 C85.6596,23.0532 82.9656,21.4352 82.9656,15.8532 L93.6166,15.8532 Z M72.3466,24.0002 C75.4236,24.0002 77.8926,21.9412 77.8926,16.3322 L77.8926,14.5862 C77.8926,8.7242 75.7416,6.7632 72.3466,6.7632 C69.7806,6.7632 67.8796,8.1522 67.1476,8.7492 L67.1146,8.7492 L67.1146,1.4332 L66.1666,1.4332 L66.1666,23.6202 L66.8016,23.6202 L67.0856,21.6862 L67.1476,21.6862 C68.6736,23.2102 70.4516,24.0002 72.3466,24.0002 L72.3466,24.0002 Z M76.9466,16.3322 C76.9466,20.3222 75.6466,23.0532 72.3466,23.0532 C69.3026,23.0532 67.1146,20.5772 67.1146,20.5772 L67.1146,9.6412 C67.1146,9.6412 69.4926,7.7082 72.3466,7.7082 C75.1406,7.7082 76.9466,9.1972 76.9466,14.9032 L76.9466,16.3322 Z M42.2336,23.6202 L42.2336,10.1142 C43.9496,8.4692 45.6606,7.7082 47.4676,7.7082 C49.0496,7.7082 50.4776,8.5592 50.4776,11.4152 L50.4776,23.6202 L51.4246,23.6202 L51.4246,11.2592 C51.4246,10.8762 51.3946,10.5262 51.3296,10.2142 C53.1076,8.4982 54.8176,7.7082 56.6606,7.7082 C58.2416,7.7082 59.6726,8.5592 59.6726,11.4152 L59.6726,23.6202 L60.6196,23.6202 L60.6196,11.2592 C60.6196,8.2432 59.0356,6.7632 56.6606,6.7632 C54.3116,6.7632 52.5006,7.9892 51.1396,9.3252 C50.6066,7.6132 49.2396,6.7632 47.4676,6.7632 C45.2446,6.7632 43.5336,7.8642 42.2006,9.0742 L41.9166,7.1372 L41.2866,7.1372 L41.2866,23.6202 L42.2336,23.6202 Z M25.5876,14.7182 C25.5876,9.7032 28.0366,7.7082 30.6656,7.7082 L30.9826,7.7082 C33.0436,7.7082 35.4206,8.7242 35.4206,13.1632 L35.4206,14.9032 L25.5876,14.9032 L25.5876,14.7182 Z M36.2446,15.8532 C36.2446,15.8532 36.3676,14.7182 36.3676,13.6692 L36.3676,13.1632 C36.3676,8.7532 34.1546,6.7632 30.9826,6.7632 L30.6656,6.7632 C27.1146,6.7632 24.6436,9.7032 24.6436,14.7472 L24.6436,15.8532 C24.6436,21.4662 27.1756,24.0002 31.2976,24.0002 C34.0256,24.0002 35.6106,22.9582 35.7386,22.8602 L35.6476,22.1982 L35.3886,22.0692 C34.9486,22.1982 33.6156,23.0532 31.2976,23.0532 C28.2876,23.0532 25.5876,21.4352 25.5876,15.8532 L36.2446,15.8532 Z M1.5026,23.6202 L1.5026,10.1142 C3.2136,8.4692 4.9296,7.7082 6.7316,7.7082 C8.3196,7.7082 9.7456,8.5592 9.7456,11.4152 L9.7456,23.6202 L10.6926,23.6202 L10.6926,11.2592 C10.6926,10.8762 10.6636,10.5262 10.5976,10.2142 C12.3746,8.4982 14.0816,7.7082 15.9246,7.7082 C17.5086,7.7082 18.9366,8.5592 18.9366,11.4152 L18.9366,23.6202 L19.8866,23.6202 L19.8866,11.2592 C19.8866,8.2432 18.3026,6.7632 15.9246,6.7632 C13.5796,6.7632 11.7706,7.9892 10.4086,9.3252 C9.8696,7.6132 8.5126,6.7632 6.7316,6.7632 C4.5136,6.7632 2.8026,7.8642 1.4646,9.0742 L1.1856,7.1372 L0.5566,7.1372 L0.5566,23.6202 L1.5026,23.6202 Z" id="Fill-1" fill="#1D1D1B" mask="url(#mask-2)"></path>
            </g>
            <path d="M298.0751,4.877 C288.9861,4.877 281.5901,12.271 281.5901,21.362 C281.5901,30.455 288.9861,37.851 298.0751,37.851 C307.1651,37.851 314.5641,30.455 314.5641,21.362 C314.5641,12.271 307.1651,4.877 298.0751,4.877 M298.0751,42.729 C286.2971,42.729 276.7181,33.144 276.7181,21.362 C276.7181,9.584 286.2971,1.42108547e-14 298.0751,1.42108547e-14 C309.8571,1.42108547e-14 319.4411,9.584 319.4411,21.362 C319.4411,33.144 309.8571,42.729 298.0751,42.729" id="Fill-4" fill="#1D1D1B"></path>
            <path d="M305.3759,10.1631 L305.3759,17.6011 L300.6129,17.6011 L300.6129,24.2231 C300.6129,26.0821 301.2519,26.8551 302.9279,26.8551 C303.9269,26.8551 304.7819,26.6231 304.7819,26.6231 L305.3759,26.9451 L305.3759,33.3361 C305.3759,33.3361 303.4739,34.2921 300.4809,34.2921 C292.9019,34.2921 291.5469,30.8931 291.5469,24.4491 L291.5469,17.6011 L289.0529,17.6011 L289.0529,10.1631 L305.3759,10.1631 Z" id="Fill-6" fill="#1D1D1B"></path>
            <path d="M19.914,25.44 C26.956,25.44 32.239,28.408 32.239,35.122 C32.239,41.942 26.956,44.803 19.914,44.803 C12.763,44.803 7.593,41.942 7.593,35.122 C7.593,28.408 12.763,25.44 19.914,25.44 L19.914,25.44 Z M30.916,109.717 C30.916,122.589 25.967,129.738 13.204,129.738 C5.504,129.738 1.42108547e-14,126.771 1.42108547e-14,126.771 L1.65,113.016 L3.302,111.585 C3.302,111.585 4.401,111.695 4.952,111.695 C7.482,111.695 8.913,110.154 8.913,106.966 L8.913,49.204 L30.916,49.204 L30.916,109.717 Z" id="Fill-8" fill="#45C2B1"></path>
            <polygon id="Fill-10" fill="#040101" points="37.0779 80.9997 64.5849 80.9997 64.5849 65.5967 37.0779 65.5967"></polygon>
            <path d="M70.747,106.415 L70.747,49.204 L83.62,49.204 L90.003,55.584 C93.412,51.844 98.585,47.884 106.285,47.884 C115.528,47.884 121.357,54.264 121.357,63.615 L121.357,106.415 L99.354,106.415 L99.354,68.347 C99.354,66.916 98.585,65.927 96.603,65.927 C94.622,65.927 92.754,67.027 92.754,67.027 L92.754,106.415 L70.747,106.415 Z" id="Fill-12" fill="#1D1D1B"></path>
            <path d="M146.6649,72.5278 L153.2689,72.5278 L153.2689,66.2578 C153.2689,63.7258 152.3869,62.6258 150.4069,62.6258 C148.5359,62.6258 146.6649,64.1668 146.6649,67.5778 L146.6649,72.5278 Z M146.6649,83.3088 L146.6649,84.4108 C146.6649,87.3818 147.6569,89.6918 154.6979,89.6918 C161.1879,89.6918 168.5609,87.3818 168.5609,87.3818 L170.1019,88.2608 C170.1019,88.2608 170.7599,95.4128 170.8699,103.6638 C170.8699,103.6638 163.9389,107.7348 151.6169,107.7348 C134.7839,107.7348 124.6619,98.9328 124.6619,79.4588 L124.6619,75.4988 C124.6619,57.3448 135.5529,47.8838 149.3079,47.8838 L151.8379,47.8838 C165.5899,47.8838 172.8519,55.3638 172.8519,71.3178 L172.8519,73.1888 C172.8519,77.1498 171.8619,83.3088 171.8619,83.3088 L146.6649,83.3088 Z" id="Fill-13" fill="#1D1D1B"></path>
            <polygon id="Fill-14" fill="#1D1D1B" points="217.8534 77.5879 228.3034 106.4149 205.6394 106.4149 201.1304 89.4709 200.5794 86.5009 199.9174 86.5009 199.3694 89.4709 194.8584 106.4149 172.1934 106.4149 182.6464 77.9189 172.7444 49.2039 195.0784 49.2039 199.4794 66.6959 199.9174 69.4469 200.5794 69.4469 201.0204 66.6959 205.4204 49.2039 227.7554 49.2039"></polygon>
            <path d="M257.6825,49.2041 L269.2355,49.2041 L269.2355,67.2471 L257.6825,67.2471 L257.6825,83.3091 C257.6825,87.8201 259.2225,89.6921 263.2925,89.6921 C265.7155,89.6921 267.8045,89.1411 267.8045,89.1411 L269.2355,89.9121 L269.2355,105.4261 C269.2355,105.4261 264.6135,107.7341 257.3545,107.7341 C238.9805,107.7341 235.6785,99.4831 235.6785,83.8601 L235.6785,67.2471 L229.6265,67.2471 L229.6265,49.2041 L235.6785,49.2041" id="Fill-15" fill="#1D1D1B"></path>
        </g>
    </g>
</svg>